<mxfile host="app.diagrams.net" modified="2023-09-26T03:30:44.277Z" agent="Mozilla/5.0 (Windows NT 10.0; Win64; x64) AppleWebKit/537.36 (KHTML, like Gecko) Chrome/117.0.0.0 Safari/537.36" etag="9vBCwmnhU5D3fpzymxIN" version="21.8.2" type="github" pages="3">
  <diagram name="Page-1" id="F2p8fYrMWb1UdvJwut0n">
    <mxGraphModel dx="1232" dy="1108" grid="1" gridSize="10" guides="1" tooltips="1" connect="1" arrows="1" fold="1" page="1" pageScale="1" pageWidth="850" pageHeight="1100" math="0" shadow="0">
      <root>
        <mxCell id="0" />
        <mxCell id="1" parent="0" />
        <mxCell id="q6ZKqkjNBES1WbZuZ3hi-1" value="" style="rounded=0;whiteSpace=wrap;html=1;" parent="1" vertex="1">
          <mxGeometry x="285" y="240" width="210" height="250" as="geometry" />
        </mxCell>
        <mxCell id="q6ZKqkjNBES1WbZuZ3hi-8" style="edgeStyle=orthogonalEdgeStyle;rounded=0;orthogonalLoop=1;jettySize=auto;html=1;exitX=0.5;exitY=1;exitDx=0;exitDy=0;" parent="1" source="q6ZKqkjNBES1WbZuZ3hi-1" target="q6ZKqkjNBES1WbZuZ3hi-1" edge="1">
          <mxGeometry relative="1" as="geometry" />
        </mxCell>
        <mxCell id="q6ZKqkjNBES1WbZuZ3hi-9" value="" style="rounded=0;whiteSpace=wrap;html=1;" parent="1" vertex="1">
          <mxGeometry x="350" y="260" width="120" height="30" as="geometry" />
        </mxCell>
        <mxCell id="q6ZKqkjNBES1WbZuZ3hi-10" value="" style="rounded=0;whiteSpace=wrap;html=1;" parent="1" vertex="1">
          <mxGeometry x="350" y="320" width="120" height="30" as="geometry" />
        </mxCell>
        <mxCell id="q6ZKqkjNBES1WbZuZ3hi-12" value="" style="rounded=0;whiteSpace=wrap;html=1;" parent="1" vertex="1">
          <mxGeometry x="350" y="290" width="120" height="30" as="geometry" />
        </mxCell>
        <mxCell id="q6ZKqkjNBES1WbZuZ3hi-13" value="" style="rounded=0;whiteSpace=wrap;html=1;" parent="1" vertex="1">
          <mxGeometry x="350" y="350" width="120" height="30" as="geometry" />
        </mxCell>
        <mxCell id="q6ZKqkjNBES1WbZuZ3hi-14" value="" style="rounded=0;whiteSpace=wrap;html=1;" parent="1" vertex="1">
          <mxGeometry x="350" y="380" width="120" height="30" as="geometry" />
        </mxCell>
        <mxCell id="q6ZKqkjNBES1WbZuZ3hi-16" value="&#39;E&#39;" style="text;html=1;strokeColor=none;fillColor=none;align=center;verticalAlign=middle;whiteSpace=wrap;rounded=0;" parent="1" vertex="1">
          <mxGeometry x="380" y="260" width="60" height="30" as="geometry" />
        </mxCell>
        <mxCell id="q6ZKqkjNBES1WbZuZ3hi-17" value="&#39;N&#39;" style="text;html=1;strokeColor=none;fillColor=none;align=center;verticalAlign=middle;whiteSpace=wrap;rounded=0;" parent="1" vertex="1">
          <mxGeometry x="380" y="290" width="60" height="30" as="geometry" />
        </mxCell>
        <mxCell id="q6ZKqkjNBES1WbZuZ3hi-18" value="&#39;G&#39;" style="text;html=1;strokeColor=none;fillColor=none;align=center;verticalAlign=middle;whiteSpace=wrap;rounded=0;" parent="1" vertex="1">
          <mxGeometry x="380" y="320" width="60" height="30" as="geometry" />
        </mxCell>
        <mxCell id="q6ZKqkjNBES1WbZuZ3hi-19" value="&#39;G&#39;" style="text;html=1;strokeColor=none;fillColor=none;align=center;verticalAlign=middle;whiteSpace=wrap;rounded=0;" parent="1" vertex="1">
          <mxGeometry x="380" y="350" width="60" height="30" as="geometry" />
        </mxCell>
        <mxCell id="q6ZKqkjNBES1WbZuZ3hi-20" value="&#39;\0&#39;" style="text;html=1;strokeColor=none;fillColor=none;align=center;verticalAlign=middle;whiteSpace=wrap;rounded=0;" parent="1" vertex="1">
          <mxGeometry x="380" y="380" width="60" height="30" as="geometry" />
        </mxCell>
        <mxCell id="q6ZKqkjNBES1WbZuZ3hi-21" value="dept" style="text;html=1;strokeColor=none;fillColor=none;align=center;verticalAlign=middle;whiteSpace=wrap;rounded=0;" parent="1" vertex="1">
          <mxGeometry x="285" y="310" width="60" height="30" as="geometry" />
        </mxCell>
        <mxCell id="q6ZKqkjNBES1WbZuZ3hi-22" value="" style="rounded=0;whiteSpace=wrap;html=1;" parent="1" vertex="1">
          <mxGeometry x="350" y="430" width="120" height="30" as="geometry" />
        </mxCell>
        <mxCell id="q6ZKqkjNBES1WbZuZ3hi-23" value="233" style="text;html=1;strokeColor=none;fillColor=none;align=center;verticalAlign=middle;whiteSpace=wrap;rounded=0;" parent="1" vertex="1">
          <mxGeometry x="380" y="430" width="60" height="30" as="geometry" />
        </mxCell>
        <mxCell id="q6ZKqkjNBES1WbZuZ3hi-24" value="number" style="text;html=1;strokeColor=none;fillColor=none;align=center;verticalAlign=middle;whiteSpace=wrap;rounded=0;" parent="1" vertex="1">
          <mxGeometry x="285" y="430" width="60" height="30" as="geometry" />
        </mxCell>
        <mxCell id="q6ZKqkjNBES1WbZuZ3hi-25" value="" style="rounded=0;whiteSpace=wrap;html=1;" parent="1" vertex="1">
          <mxGeometry x="285" y="520" width="210" height="250" as="geometry" />
        </mxCell>
        <mxCell id="q6ZKqkjNBES1WbZuZ3hi-26" style="edgeStyle=orthogonalEdgeStyle;rounded=0;orthogonalLoop=1;jettySize=auto;html=1;exitX=0.5;exitY=1;exitDx=0;exitDy=0;" parent="1" source="q6ZKqkjNBES1WbZuZ3hi-25" target="q6ZKqkjNBES1WbZuZ3hi-25" edge="1">
          <mxGeometry relative="1" as="geometry" />
        </mxCell>
        <mxCell id="q6ZKqkjNBES1WbZuZ3hi-27" value="" style="rounded=0;whiteSpace=wrap;html=1;" parent="1" vertex="1">
          <mxGeometry x="350" y="540" width="120" height="30" as="geometry" />
        </mxCell>
        <mxCell id="q6ZKqkjNBES1WbZuZ3hi-28" value="" style="rounded=0;whiteSpace=wrap;html=1;" parent="1" vertex="1">
          <mxGeometry x="350" y="600" width="120" height="30" as="geometry" />
        </mxCell>
        <mxCell id="q6ZKqkjNBES1WbZuZ3hi-29" value="" style="rounded=0;whiteSpace=wrap;html=1;" parent="1" vertex="1">
          <mxGeometry x="350" y="570" width="120" height="30" as="geometry" />
        </mxCell>
        <mxCell id="q6ZKqkjNBES1WbZuZ3hi-30" value="" style="rounded=0;whiteSpace=wrap;html=1;" parent="1" vertex="1">
          <mxGeometry x="350" y="630" width="120" height="30" as="geometry" />
        </mxCell>
        <mxCell id="q6ZKqkjNBES1WbZuZ3hi-31" value="" style="rounded=0;whiteSpace=wrap;html=1;" parent="1" vertex="1">
          <mxGeometry x="350" y="660" width="120" height="30" as="geometry" />
        </mxCell>
        <mxCell id="q6ZKqkjNBES1WbZuZ3hi-32" value="&#39;P&#39;" style="text;html=1;strokeColor=none;fillColor=none;align=center;verticalAlign=middle;whiteSpace=wrap;rounded=0;" parent="1" vertex="1">
          <mxGeometry x="380" y="540" width="60" height="30" as="geometry" />
        </mxCell>
        <mxCell id="q6ZKqkjNBES1WbZuZ3hi-33" value="&#39;H&#39;" style="text;html=1;strokeColor=none;fillColor=none;align=center;verticalAlign=middle;whiteSpace=wrap;rounded=0;" parent="1" vertex="1">
          <mxGeometry x="380" y="570" width="60" height="30" as="geometry" />
        </mxCell>
        <mxCell id="q6ZKqkjNBES1WbZuZ3hi-34" value="&#39;Y&#39;" style="text;html=1;strokeColor=none;fillColor=none;align=center;verticalAlign=middle;whiteSpace=wrap;rounded=0;" parent="1" vertex="1">
          <mxGeometry x="380" y="600" width="60" height="30" as="geometry" />
        </mxCell>
        <mxCell id="q6ZKqkjNBES1WbZuZ3hi-35" value="&#39;S&#39;" style="text;html=1;strokeColor=none;fillColor=none;align=center;verticalAlign=middle;whiteSpace=wrap;rounded=0;" parent="1" vertex="1">
          <mxGeometry x="380" y="630" width="60" height="30" as="geometry" />
        </mxCell>
        <mxCell id="q6ZKqkjNBES1WbZuZ3hi-36" value="&#39;\0&#39;" style="text;html=1;strokeColor=none;fillColor=none;align=center;verticalAlign=middle;whiteSpace=wrap;rounded=0;" parent="1" vertex="1">
          <mxGeometry x="380" y="660" width="60" height="30" as="geometry" />
        </mxCell>
        <mxCell id="q6ZKqkjNBES1WbZuZ3hi-37" value="dept" style="text;html=1;strokeColor=none;fillColor=none;align=center;verticalAlign=middle;whiteSpace=wrap;rounded=0;" parent="1" vertex="1">
          <mxGeometry x="285" y="590" width="60" height="30" as="geometry" />
        </mxCell>
        <mxCell id="q6ZKqkjNBES1WbZuZ3hi-38" value="" style="rounded=0;whiteSpace=wrap;html=1;" parent="1" vertex="1">
          <mxGeometry x="350" y="710" width="120" height="30" as="geometry" />
        </mxCell>
        <mxCell id="q6ZKqkjNBES1WbZuZ3hi-39" value="269" style="text;html=1;strokeColor=none;fillColor=none;align=center;verticalAlign=middle;whiteSpace=wrap;rounded=0;" parent="1" vertex="1">
          <mxGeometry x="380" y="710" width="60" height="30" as="geometry" />
        </mxCell>
        <mxCell id="q6ZKqkjNBES1WbZuZ3hi-40" value="number" style="text;html=1;strokeColor=none;fillColor=none;align=center;verticalAlign=middle;whiteSpace=wrap;rounded=0;" parent="1" vertex="1">
          <mxGeometry x="285" y="710" width="60" height="30" as="geometry" />
        </mxCell>
        <mxCell id="q6ZKqkjNBES1WbZuZ3hi-43" value="alpha" style="text;html=1;strokeColor=none;fillColor=none;align=center;verticalAlign=middle;whiteSpace=wrap;rounded=0;" parent="1" vertex="1">
          <mxGeometry x="200" y="340" width="60" height="30" as="geometry" />
        </mxCell>
        <mxCell id="q6ZKqkjNBES1WbZuZ3hi-44" value="beta" style="text;html=1;strokeColor=none;fillColor=none;align=center;verticalAlign=middle;whiteSpace=wrap;rounded=0;" parent="1" vertex="1">
          <mxGeometry x="200" y="620" width="60" height="30" as="geometry" />
        </mxCell>
        <mxCell id="q6ZKqkjNBES1WbZuZ3hi-46" value="beta" style="text;html=1;strokeColor=none;fillColor=none;align=center;verticalAlign=middle;whiteSpace=wrap;rounded=0;" parent="1" vertex="1">
          <mxGeometry x="40" y="850" width="60" height="30" as="geometry" />
        </mxCell>
        <mxCell id="q6ZKqkjNBES1WbZuZ3hi-47" value="" style="rounded=0;whiteSpace=wrap;html=1;" parent="1" vertex="1">
          <mxGeometry x="350" y="810" width="120" height="30" as="geometry" />
        </mxCell>
        <mxCell id="q6ZKqkjNBES1WbZuZ3hi-48" value="" style="rounded=0;whiteSpace=wrap;html=1;" parent="1" vertex="1">
          <mxGeometry x="350" y="860" width="120" height="30" as="geometry" />
        </mxCell>
        <mxCell id="q6ZKqkjNBES1WbZuZ3hi-49" value="psc" style="text;html=1;strokeColor=none;fillColor=none;align=center;verticalAlign=middle;whiteSpace=wrap;rounded=0;" parent="1" vertex="1">
          <mxGeometry x="290" y="810" width="60" height="30" as="geometry" />
        </mxCell>
        <mxCell id="q6ZKqkjNBES1WbZuZ3hi-50" value="pi" style="text;html=1;strokeColor=none;fillColor=none;align=center;verticalAlign=middle;whiteSpace=wrap;rounded=0;" parent="1" vertex="1">
          <mxGeometry x="290" y="860" width="60" height="30" as="geometry" />
        </mxCell>
        <mxCell id="q6ZKqkjNBES1WbZuZ3hi-51" value="" style="shape=waypoint;sketch=0;fillStyle=solid;size=6;pointerEvents=1;points=[];fillColor=none;resizable=0;rotatable=0;perimeter=centerPerimeter;snapToPoint=1;" parent="1" vertex="1">
          <mxGeometry x="400" y="815" width="20" height="20" as="geometry" />
        </mxCell>
        <mxCell id="q6ZKqkjNBES1WbZuZ3hi-52" value="" style="shape=waypoint;sketch=0;fillStyle=solid;size=6;pointerEvents=1;points=[];fillColor=none;resizable=0;rotatable=0;perimeter=centerPerimeter;snapToPoint=1;" parent="1" vertex="1">
          <mxGeometry x="400" y="865" width="20" height="20" as="geometry" />
        </mxCell>
        <mxCell id="q6ZKqkjNBES1WbZuZ3hi-54" value="" style="edgeStyle=elbowEdgeStyle;elbow=horizontal;endArrow=classic;html=1;curved=0;rounded=0;endSize=8;startSize=8;entryX=1;entryY=0.5;entryDx=0;entryDy=0;" parent="1" source="q6ZKqkjNBES1WbZuZ3hi-51" target="q6ZKqkjNBES1WbZuZ3hi-22" edge="1">
          <mxGeometry width="50" height="50" relative="1" as="geometry">
            <mxPoint x="460" y="830" as="sourcePoint" />
            <mxPoint x="510" y="780" as="targetPoint" />
            <Array as="points">
              <mxPoint x="570" y="590" />
            </Array>
          </mxGeometry>
        </mxCell>
        <mxCell id="q6ZKqkjNBES1WbZuZ3hi-55" value="" style="edgeStyle=elbowEdgeStyle;elbow=horizontal;endArrow=classic;html=1;curved=0;rounded=0;endSize=8;startSize=8;entryX=1.029;entryY=0.005;entryDx=0;entryDy=0;exitX=0.642;exitY=0.808;exitDx=0;exitDy=0;exitPerimeter=0;entryPerimeter=0;" parent="1" source="q6ZKqkjNBES1WbZuZ3hi-52" target="q6ZKqkjNBES1WbZuZ3hi-25" edge="1">
          <mxGeometry width="50" height="50" relative="1" as="geometry">
            <mxPoint x="490" y="910" as="sourcePoint" />
            <mxPoint x="550" y="530" as="targetPoint" />
            <Array as="points">
              <mxPoint x="650" y="675" />
            </Array>
          </mxGeometry>
        </mxCell>
      </root>
    </mxGraphModel>
  </diagram>
  <diagram id="fkV9GIBILPhg6Py3zCkH" name="Page-2">
    <mxGraphModel dx="913" dy="1921" grid="1" gridSize="10" guides="1" tooltips="1" connect="1" arrows="1" fold="1" page="1" pageScale="1" pageWidth="850" pageHeight="1100" math="0" shadow="0">
      <root>
        <mxCell id="0" />
        <mxCell id="1" parent="0" />
        <mxCell id="Z-hSByVWS7bKOltSFPJ0-1" value="" style="rounded=0;whiteSpace=wrap;html=1;" vertex="1" parent="1">
          <mxGeometry x="285" y="240" width="210" height="250" as="geometry" />
        </mxCell>
        <mxCell id="Z-hSByVWS7bKOltSFPJ0-2" style="edgeStyle=orthogonalEdgeStyle;rounded=0;orthogonalLoop=1;jettySize=auto;html=1;exitX=0.5;exitY=1;exitDx=0;exitDy=0;" edge="1" parent="1" source="Z-hSByVWS7bKOltSFPJ0-1" target="Z-hSByVWS7bKOltSFPJ0-1">
          <mxGeometry relative="1" as="geometry" />
        </mxCell>
        <mxCell id="Z-hSByVWS7bKOltSFPJ0-3" value="" style="rounded=0;whiteSpace=wrap;html=1;" vertex="1" parent="1">
          <mxGeometry x="350" y="260" width="120" height="30" as="geometry" />
        </mxCell>
        <mxCell id="Z-hSByVWS7bKOltSFPJ0-4" value="" style="rounded=0;whiteSpace=wrap;html=1;" vertex="1" parent="1">
          <mxGeometry x="350" y="320" width="120" height="30" as="geometry" />
        </mxCell>
        <mxCell id="Z-hSByVWS7bKOltSFPJ0-5" value="" style="rounded=0;whiteSpace=wrap;html=1;" vertex="1" parent="1">
          <mxGeometry x="350" y="290" width="120" height="30" as="geometry" />
        </mxCell>
        <mxCell id="Z-hSByVWS7bKOltSFPJ0-6" value="" style="rounded=0;whiteSpace=wrap;html=1;" vertex="1" parent="1">
          <mxGeometry x="350" y="350" width="120" height="30" as="geometry" />
        </mxCell>
        <mxCell id="Z-hSByVWS7bKOltSFPJ0-7" value="" style="rounded=0;whiteSpace=wrap;html=1;" vertex="1" parent="1">
          <mxGeometry x="350" y="380" width="120" height="30" as="geometry" />
        </mxCell>
        <mxCell id="Z-hSByVWS7bKOltSFPJ0-8" value="&#39;E&#39;" style="text;html=1;strokeColor=none;fillColor=none;align=center;verticalAlign=middle;whiteSpace=wrap;rounded=0;" vertex="1" parent="1">
          <mxGeometry x="380" y="260" width="60" height="30" as="geometry" />
        </mxCell>
        <mxCell id="Z-hSByVWS7bKOltSFPJ0-9" value="&#39;N&#39;" style="text;html=1;strokeColor=none;fillColor=none;align=center;verticalAlign=middle;whiteSpace=wrap;rounded=0;" vertex="1" parent="1">
          <mxGeometry x="380" y="290" width="60" height="30" as="geometry" />
        </mxCell>
        <mxCell id="Z-hSByVWS7bKOltSFPJ0-10" value="&#39;G&#39;" style="text;html=1;strokeColor=none;fillColor=none;align=center;verticalAlign=middle;whiteSpace=wrap;rounded=0;" vertex="1" parent="1">
          <mxGeometry x="380" y="320" width="60" height="30" as="geometry" />
        </mxCell>
        <mxCell id="Z-hSByVWS7bKOltSFPJ0-11" value="&#39;G&#39;" style="text;html=1;strokeColor=none;fillColor=none;align=center;verticalAlign=middle;whiteSpace=wrap;rounded=0;" vertex="1" parent="1">
          <mxGeometry x="380" y="350" width="60" height="30" as="geometry" />
        </mxCell>
        <mxCell id="Z-hSByVWS7bKOltSFPJ0-12" value="&#39;\0&#39;" style="text;html=1;strokeColor=none;fillColor=none;align=center;verticalAlign=middle;whiteSpace=wrap;rounded=0;" vertex="1" parent="1">
          <mxGeometry x="380" y="380" width="60" height="30" as="geometry" />
        </mxCell>
        <mxCell id="Z-hSByVWS7bKOltSFPJ0-13" value="dept" style="text;html=1;strokeColor=none;fillColor=none;align=center;verticalAlign=middle;whiteSpace=wrap;rounded=0;" vertex="1" parent="1">
          <mxGeometry x="285" y="310" width="60" height="30" as="geometry" />
        </mxCell>
        <mxCell id="Z-hSByVWS7bKOltSFPJ0-14" value="" style="rounded=0;whiteSpace=wrap;html=1;" vertex="1" parent="1">
          <mxGeometry x="350" y="430" width="120" height="30" as="geometry" />
        </mxCell>
        <mxCell id="Z-hSByVWS7bKOltSFPJ0-15" value="233" style="text;html=1;strokeColor=none;fillColor=none;align=center;verticalAlign=middle;whiteSpace=wrap;rounded=0;" vertex="1" parent="1">
          <mxGeometry x="380" y="430" width="60" height="30" as="geometry" />
        </mxCell>
        <mxCell id="Z-hSByVWS7bKOltSFPJ0-16" value="number" style="text;html=1;strokeColor=none;fillColor=none;align=center;verticalAlign=middle;whiteSpace=wrap;rounded=0;" vertex="1" parent="1">
          <mxGeometry x="285" y="430" width="60" height="30" as="geometry" />
        </mxCell>
        <mxCell id="Z-hSByVWS7bKOltSFPJ0-17" value="" style="rounded=0;whiteSpace=wrap;html=1;" vertex="1" parent="1">
          <mxGeometry x="285" y="520" width="210" height="250" as="geometry" />
        </mxCell>
        <mxCell id="Z-hSByVWS7bKOltSFPJ0-18" style="edgeStyle=orthogonalEdgeStyle;rounded=0;orthogonalLoop=1;jettySize=auto;html=1;exitX=0.5;exitY=1;exitDx=0;exitDy=0;" edge="1" parent="1" source="Z-hSByVWS7bKOltSFPJ0-17" target="Z-hSByVWS7bKOltSFPJ0-17">
          <mxGeometry relative="1" as="geometry" />
        </mxCell>
        <mxCell id="Z-hSByVWS7bKOltSFPJ0-19" value="" style="rounded=0;whiteSpace=wrap;html=1;" vertex="1" parent="1">
          <mxGeometry x="350" y="540" width="120" height="30" as="geometry" />
        </mxCell>
        <mxCell id="Z-hSByVWS7bKOltSFPJ0-20" value="" style="rounded=0;whiteSpace=wrap;html=1;" vertex="1" parent="1">
          <mxGeometry x="350" y="600" width="120" height="30" as="geometry" />
        </mxCell>
        <mxCell id="Z-hSByVWS7bKOltSFPJ0-21" value="" style="rounded=0;whiteSpace=wrap;html=1;" vertex="1" parent="1">
          <mxGeometry x="350" y="570" width="120" height="30" as="geometry" />
        </mxCell>
        <mxCell id="Z-hSByVWS7bKOltSFPJ0-22" value="" style="rounded=0;whiteSpace=wrap;html=1;" vertex="1" parent="1">
          <mxGeometry x="350" y="630" width="120" height="30" as="geometry" />
        </mxCell>
        <mxCell id="Z-hSByVWS7bKOltSFPJ0-23" value="" style="rounded=0;whiteSpace=wrap;html=1;" vertex="1" parent="1">
          <mxGeometry x="350" y="660" width="120" height="30" as="geometry" />
        </mxCell>
        <mxCell id="Z-hSByVWS7bKOltSFPJ0-24" value="&#39;P&#39;" style="text;html=1;strokeColor=none;fillColor=none;align=center;verticalAlign=middle;whiteSpace=wrap;rounded=0;" vertex="1" parent="1">
          <mxGeometry x="380" y="540" width="60" height="30" as="geometry" />
        </mxCell>
        <mxCell id="Z-hSByVWS7bKOltSFPJ0-25" value="&#39;H&#39;" style="text;html=1;strokeColor=none;fillColor=none;align=center;verticalAlign=middle;whiteSpace=wrap;rounded=0;" vertex="1" parent="1">
          <mxGeometry x="380" y="570" width="60" height="30" as="geometry" />
        </mxCell>
        <mxCell id="Z-hSByVWS7bKOltSFPJ0-26" value="&#39;Y&#39;" style="text;html=1;strokeColor=none;fillColor=none;align=center;verticalAlign=middle;whiteSpace=wrap;rounded=0;" vertex="1" parent="1">
          <mxGeometry x="380" y="600" width="60" height="30" as="geometry" />
        </mxCell>
        <mxCell id="Z-hSByVWS7bKOltSFPJ0-27" value="&#39;S&#39;" style="text;html=1;strokeColor=none;fillColor=none;align=center;verticalAlign=middle;whiteSpace=wrap;rounded=0;" vertex="1" parent="1">
          <mxGeometry x="380" y="630" width="60" height="30" as="geometry" />
        </mxCell>
        <mxCell id="Z-hSByVWS7bKOltSFPJ0-28" value="&#39;\0&#39;" style="text;html=1;strokeColor=none;fillColor=none;align=center;verticalAlign=middle;whiteSpace=wrap;rounded=0;" vertex="1" parent="1">
          <mxGeometry x="380" y="660" width="60" height="30" as="geometry" />
        </mxCell>
        <mxCell id="Z-hSByVWS7bKOltSFPJ0-29" value="dept" style="text;html=1;strokeColor=none;fillColor=none;align=center;verticalAlign=middle;whiteSpace=wrap;rounded=0;" vertex="1" parent="1">
          <mxGeometry x="285" y="590" width="60" height="30" as="geometry" />
        </mxCell>
        <mxCell id="Z-hSByVWS7bKOltSFPJ0-30" value="" style="rounded=0;whiteSpace=wrap;html=1;" vertex="1" parent="1">
          <mxGeometry x="350" y="710" width="120" height="30" as="geometry" />
        </mxCell>
        <mxCell id="Z-hSByVWS7bKOltSFPJ0-31" value="269" style="text;html=1;strokeColor=none;fillColor=none;align=center;verticalAlign=middle;whiteSpace=wrap;rounded=0;" vertex="1" parent="1">
          <mxGeometry x="380" y="710" width="60" height="30" as="geometry" />
        </mxCell>
        <mxCell id="Z-hSByVWS7bKOltSFPJ0-32" value="number" style="text;html=1;strokeColor=none;fillColor=none;align=center;verticalAlign=middle;whiteSpace=wrap;rounded=0;" vertex="1" parent="1">
          <mxGeometry x="285" y="710" width="60" height="30" as="geometry" />
        </mxCell>
        <mxCell id="Z-hSByVWS7bKOltSFPJ0-33" value="alpha" style="text;html=1;strokeColor=none;fillColor=none;align=center;verticalAlign=middle;whiteSpace=wrap;rounded=0;" vertex="1" parent="1">
          <mxGeometry x="200" y="340" width="60" height="30" as="geometry" />
        </mxCell>
        <mxCell id="Z-hSByVWS7bKOltSFPJ0-34" value="beta" style="text;html=1;strokeColor=none;fillColor=none;align=center;verticalAlign=middle;whiteSpace=wrap;rounded=0;" vertex="1" parent="1">
          <mxGeometry x="200" y="620" width="60" height="30" as="geometry" />
        </mxCell>
        <mxCell id="Z-hSByVWS7bKOltSFPJ0-35" value="beta" style="text;html=1;strokeColor=none;fillColor=none;align=center;verticalAlign=middle;whiteSpace=wrap;rounded=0;" vertex="1" parent="1">
          <mxGeometry x="40" y="850" width="60" height="30" as="geometry" />
        </mxCell>
        <mxCell id="Z-hSByVWS7bKOltSFPJ0-36" value="" style="rounded=0;whiteSpace=wrap;html=1;" vertex="1" parent="1">
          <mxGeometry x="350" y="810" width="120" height="30" as="geometry" />
        </mxCell>
        <mxCell id="Z-hSByVWS7bKOltSFPJ0-37" value="" style="rounded=0;whiteSpace=wrap;html=1;" vertex="1" parent="1">
          <mxGeometry x="350" y="860" width="120" height="30" as="geometry" />
        </mxCell>
        <mxCell id="Z-hSByVWS7bKOltSFPJ0-38" value="psc" style="text;html=1;strokeColor=none;fillColor=none;align=center;verticalAlign=middle;whiteSpace=wrap;rounded=0;" vertex="1" parent="1">
          <mxGeometry x="290" y="810" width="60" height="30" as="geometry" />
        </mxCell>
        <mxCell id="Z-hSByVWS7bKOltSFPJ0-39" value="pi" style="text;html=1;strokeColor=none;fillColor=none;align=center;verticalAlign=middle;whiteSpace=wrap;rounded=0;" vertex="1" parent="1">
          <mxGeometry x="290" y="860" width="60" height="30" as="geometry" />
        </mxCell>
        <mxCell id="Z-hSByVWS7bKOltSFPJ0-40" value="" style="shape=waypoint;sketch=0;fillStyle=solid;size=6;pointerEvents=1;points=[];fillColor=none;resizable=0;rotatable=0;perimeter=centerPerimeter;snapToPoint=1;" vertex="1" parent="1">
          <mxGeometry x="400" y="815" width="20" height="20" as="geometry" />
        </mxCell>
        <mxCell id="Z-hSByVWS7bKOltSFPJ0-41" value="" style="shape=waypoint;sketch=0;fillStyle=solid;size=6;pointerEvents=1;points=[];fillColor=none;resizable=0;rotatable=0;perimeter=centerPerimeter;snapToPoint=1;" vertex="1" parent="1">
          <mxGeometry x="400" y="865" width="20" height="20" as="geometry" />
        </mxCell>
        <mxCell id="Z-hSByVWS7bKOltSFPJ0-42" value="" style="edgeStyle=elbowEdgeStyle;elbow=horizontal;endArrow=classic;html=1;curved=0;rounded=0;endSize=8;startSize=8;entryX=1;entryY=0.5;entryDx=0;entryDy=0;" edge="1" parent="1" source="Z-hSByVWS7bKOltSFPJ0-40" target="Z-hSByVWS7bKOltSFPJ0-14">
          <mxGeometry width="50" height="50" relative="1" as="geometry">
            <mxPoint x="460" y="830" as="sourcePoint" />
            <mxPoint x="510" y="780" as="targetPoint" />
            <Array as="points">
              <mxPoint x="570" y="590" />
            </Array>
          </mxGeometry>
        </mxCell>
        <mxCell id="Z-hSByVWS7bKOltSFPJ0-43" value="" style="edgeStyle=elbowEdgeStyle;elbow=horizontal;endArrow=classic;html=1;curved=0;rounded=0;endSize=8;startSize=8;entryX=1.029;entryY=0.005;entryDx=0;entryDy=0;exitX=0.642;exitY=0.808;exitDx=0;exitDy=0;exitPerimeter=0;entryPerimeter=0;" edge="1" parent="1" source="Z-hSByVWS7bKOltSFPJ0-41" target="Z-hSByVWS7bKOltSFPJ0-17">
          <mxGeometry width="50" height="50" relative="1" as="geometry">
            <mxPoint x="490" y="910" as="sourcePoint" />
            <mxPoint x="550" y="530" as="targetPoint" />
            <Array as="points">
              <mxPoint x="650" y="675" />
            </Array>
          </mxGeometry>
        </mxCell>
        <mxCell id="Z-hSByVWS7bKOltSFPJ0-44" value="" style="rounded=0;whiteSpace=wrap;html=1;" vertex="1" parent="1">
          <mxGeometry x="220" y="-290" width="275" height="490" as="geometry" />
        </mxCell>
        <mxCell id="Z-hSByVWS7bKOltSFPJ0-45" style="edgeStyle=orthogonalEdgeStyle;rounded=0;orthogonalLoop=1;jettySize=auto;html=1;exitX=0.5;exitY=1;exitDx=0;exitDy=0;" edge="1" parent="1" source="Z-hSByVWS7bKOltSFPJ0-44" target="Z-hSByVWS7bKOltSFPJ0-44">
          <mxGeometry relative="1" as="geometry" />
        </mxCell>
        <mxCell id="Z-hSByVWS7bKOltSFPJ0-66" value="" style="line;strokeWidth=2;html=1;" vertex="1" parent="1">
          <mxGeometry x="220" y="140" width="280" height="10" as="geometry" />
        </mxCell>
        <mxCell id="Z-hSByVWS7bKOltSFPJ0-68" value="No Args" style="text;html=1;strokeColor=none;fillColor=none;align=center;verticalAlign=middle;whiteSpace=wrap;rounded=0;" vertex="1" parent="1">
          <mxGeometry x="327.5" y="160" width="60" height="30" as="geometry" />
        </mxCell>
        <mxCell id="Z-hSByVWS7bKOltSFPJ0-69" value="" style="rounded=0;whiteSpace=wrap;html=1;" vertex="1" parent="1">
          <mxGeometry x="300" y="-250" width="180" height="250" as="geometry" />
        </mxCell>
        <mxCell id="Z-hSByVWS7bKOltSFPJ0-70" style="edgeStyle=orthogonalEdgeStyle;rounded=0;orthogonalLoop=1;jettySize=auto;html=1;exitX=0.5;exitY=1;exitDx=0;exitDy=0;" edge="1" parent="1" source="Z-hSByVWS7bKOltSFPJ0-69" target="Z-hSByVWS7bKOltSFPJ0-69">
          <mxGeometry relative="1" as="geometry" />
        </mxCell>
        <mxCell id="Z-hSByVWS7bKOltSFPJ0-71" value="" style="rounded=0;whiteSpace=wrap;html=1;" vertex="1" parent="1">
          <mxGeometry x="350" y="-230" width="120" height="30" as="geometry" />
        </mxCell>
        <mxCell id="Z-hSByVWS7bKOltSFPJ0-72" value="" style="rounded=0;whiteSpace=wrap;html=1;" vertex="1" parent="1">
          <mxGeometry x="350" y="-170" width="120" height="30" as="geometry" />
        </mxCell>
        <mxCell id="Z-hSByVWS7bKOltSFPJ0-73" value="" style="rounded=0;whiteSpace=wrap;html=1;" vertex="1" parent="1">
          <mxGeometry x="350" y="-200" width="120" height="30" as="geometry" />
        </mxCell>
        <mxCell id="Z-hSByVWS7bKOltSFPJ0-74" value="" style="rounded=0;whiteSpace=wrap;html=1;" vertex="1" parent="1">
          <mxGeometry x="350" y="-140" width="120" height="30" as="geometry" />
        </mxCell>
        <mxCell id="Z-hSByVWS7bKOltSFPJ0-75" value="" style="rounded=0;whiteSpace=wrap;html=1;" vertex="1" parent="1">
          <mxGeometry x="350" y="-110" width="120" height="30" as="geometry" />
        </mxCell>
        <mxCell id="Z-hSByVWS7bKOltSFPJ0-76" value="&#39;E&#39;" style="text;html=1;strokeColor=none;fillColor=none;align=center;verticalAlign=middle;whiteSpace=wrap;rounded=0;" vertex="1" parent="1">
          <mxGeometry x="380" y="-230" width="60" height="30" as="geometry" />
        </mxCell>
        <mxCell id="Z-hSByVWS7bKOltSFPJ0-77" value="&#39;N&#39;" style="text;html=1;strokeColor=none;fillColor=none;align=center;verticalAlign=middle;whiteSpace=wrap;rounded=0;" vertex="1" parent="1">
          <mxGeometry x="380" y="-200" width="60" height="30" as="geometry" />
        </mxCell>
        <mxCell id="Z-hSByVWS7bKOltSFPJ0-78" value="&#39;C&#39;" style="text;html=1;strokeColor=none;fillColor=none;align=center;verticalAlign=middle;whiteSpace=wrap;rounded=0;" vertex="1" parent="1">
          <mxGeometry x="380" y="-170" width="60" height="30" as="geometry" />
        </mxCell>
        <mxCell id="Z-hSByVWS7bKOltSFPJ0-79" value="&#39;M&#39;" style="text;html=1;strokeColor=none;fillColor=none;align=center;verticalAlign=middle;whiteSpace=wrap;rounded=0;" vertex="1" parent="1">
          <mxGeometry x="380" y="-140" width="60" height="30" as="geometry" />
        </mxCell>
        <mxCell id="Z-hSByVWS7bKOltSFPJ0-80" value="&#39;\0&#39;" style="text;html=1;strokeColor=none;fillColor=none;align=center;verticalAlign=middle;whiteSpace=wrap;rounded=0;" vertex="1" parent="1">
          <mxGeometry x="380" y="-110" width="60" height="30" as="geometry" />
        </mxCell>
        <mxCell id="Z-hSByVWS7bKOltSFPJ0-81" value="dept" style="text;html=1;strokeColor=none;fillColor=none;align=center;verticalAlign=middle;whiteSpace=wrap;rounded=0;" vertex="1" parent="1">
          <mxGeometry x="297" y="-180" width="60" height="30" as="geometry" />
        </mxCell>
        <mxCell id="Z-hSByVWS7bKOltSFPJ0-82" value="" style="rounded=0;whiteSpace=wrap;html=1;" vertex="1" parent="1">
          <mxGeometry x="350" y="-60" width="120" height="30" as="geometry" />
        </mxCell>
        <mxCell id="Z-hSByVWS7bKOltSFPJ0-84" value="number" style="text;html=1;strokeColor=none;fillColor=none;align=center;verticalAlign=middle;whiteSpace=wrap;rounded=0;" vertex="1" parent="1">
          <mxGeometry x="294" y="-60" width="60" height="30" as="geometry" />
        </mxCell>
        <mxCell id="Z-hSByVWS7bKOltSFPJ0-86" value="??" style="text;html=1;strokeColor=none;fillColor=none;align=center;verticalAlign=middle;whiteSpace=wrap;rounded=0;" vertex="1" parent="1">
          <mxGeometry x="380" y="-60" width="60" height="30" as="geometry" />
        </mxCell>
        <mxCell id="Z-hSByVWS7bKOltSFPJ0-87" value="result" style="text;html=1;strokeColor=none;fillColor=none;align=center;verticalAlign=middle;whiteSpace=wrap;rounded=0;" vertex="1" parent="1">
          <mxGeometry x="230" y="-150" width="60" height="30" as="geometry" />
        </mxCell>
        <mxCell id="Z-hSByVWS7bKOltSFPJ0-88" value="func1" style="text;html=1;strokeColor=none;fillColor=none;align=center;verticalAlign=middle;whiteSpace=wrap;rounded=0;" vertex="1" parent="1">
          <mxGeometry x="130" y="-110" width="60" height="30" as="geometry" />
        </mxCell>
      </root>
    </mxGraphModel>
  </diagram>
  <diagram id="MzLZ-ZhoiEDMwxVkKI_t" name="Page-3">
    <mxGraphModel dx="1232" dy="2208" grid="1" gridSize="10" guides="1" tooltips="1" connect="1" arrows="1" fold="1" page="1" pageScale="1" pageWidth="850" pageHeight="1100" math="0" shadow="0">
      <root>
        <mxCell id="0" />
        <mxCell id="1" parent="0" />
        <mxCell id="A1YP4rXGHSTzzGrMQedD-1" value="" style="rounded=0;whiteSpace=wrap;html=1;" parent="1" vertex="1">
          <mxGeometry x="350" y="-940" width="275" height="490" as="geometry" />
        </mxCell>
        <mxCell id="A1YP4rXGHSTzzGrMQedD-2" style="edgeStyle=orthogonalEdgeStyle;rounded=0;orthogonalLoop=1;jettySize=auto;html=1;exitX=0.5;exitY=1;exitDx=0;exitDy=0;" parent="1" source="A1YP4rXGHSTzzGrMQedD-1" target="A1YP4rXGHSTzzGrMQedD-1" edge="1">
          <mxGeometry relative="1" as="geometry" />
        </mxCell>
        <mxCell id="A1YP4rXGHSTzzGrMQedD-3" value="" style="line;strokeWidth=2;html=1;" parent="1" vertex="1">
          <mxGeometry x="350" y="-510" width="280" height="10" as="geometry" />
        </mxCell>
        <mxCell id="A1YP4rXGHSTzzGrMQedD-4" value="No Args" style="text;html=1;strokeColor=none;fillColor=none;align=center;verticalAlign=middle;whiteSpace=wrap;rounded=0;" parent="1" vertex="1">
          <mxGeometry x="457.5" y="-490" width="60" height="30" as="geometry" />
        </mxCell>
        <mxCell id="A1YP4rXGHSTzzGrMQedD-6" style="edgeStyle=orthogonalEdgeStyle;rounded=0;orthogonalLoop=1;jettySize=auto;html=1;exitX=0.5;exitY=1;exitDx=0;exitDy=0;" parent="1" edge="1">
          <mxGeometry relative="1" as="geometry">
            <mxPoint x="520" y="-650" as="sourcePoint" />
            <mxPoint x="520" y="-650" as="targetPoint" />
          </mxGeometry>
        </mxCell>
        <mxCell id="A1YP4rXGHSTzzGrMQedD-7" value="" style="rounded=0;whiteSpace=wrap;html=1;" parent="1" vertex="1">
          <mxGeometry x="480" y="-880" width="120" height="30" as="geometry" />
        </mxCell>
        <mxCell id="A1YP4rXGHSTzzGrMQedD-8" value="" style="rounded=0;whiteSpace=wrap;html=1;" parent="1" vertex="1">
          <mxGeometry x="480" y="-820" width="120" height="30" as="geometry" />
        </mxCell>
        <mxCell id="A1YP4rXGHSTzzGrMQedD-9" value="" style="rounded=0;whiteSpace=wrap;html=1;" parent="1" vertex="1">
          <mxGeometry x="480" y="-850" width="120" height="30" as="geometry" />
        </mxCell>
        <mxCell id="A1YP4rXGHSTzzGrMQedD-10" value="" style="rounded=0;whiteSpace=wrap;html=1;" parent="1" vertex="1">
          <mxGeometry x="480" y="-790" width="120" height="30" as="geometry" />
        </mxCell>
        <mxCell id="A1YP4rXGHSTzzGrMQedD-12" value="2.3" style="text;html=1;strokeColor=none;fillColor=none;align=center;verticalAlign=middle;whiteSpace=wrap;rounded=0;" parent="1" vertex="1">
          <mxGeometry x="510" y="-880" width="60" height="30" as="geometry" />
        </mxCell>
        <mxCell id="A1YP4rXGHSTzzGrMQedD-13" value="1.2" style="text;html=1;strokeColor=none;fillColor=none;align=center;verticalAlign=middle;whiteSpace=wrap;rounded=0;" parent="1" vertex="1">
          <mxGeometry x="510" y="-850" width="60" height="30" as="geometry" />
        </mxCell>
        <mxCell id="A1YP4rXGHSTzzGrMQedD-14" value="2.0" style="text;html=1;strokeColor=none;fillColor=none;align=center;verticalAlign=middle;whiteSpace=wrap;rounded=0;" parent="1" vertex="1">
          <mxGeometry x="510" y="-820" width="60" height="30" as="geometry" />
        </mxCell>
        <mxCell id="A1YP4rXGHSTzzGrMQedD-15" value="4.0" style="text;html=1;strokeColor=none;fillColor=none;align=center;verticalAlign=middle;whiteSpace=wrap;rounded=0;" parent="1" vertex="1">
          <mxGeometry x="510" y="-790" width="60" height="30" as="geometry" />
        </mxCell>
        <mxCell id="A1YP4rXGHSTzzGrMQedD-17" value="y" style="text;html=1;strokeColor=none;fillColor=none;align=center;verticalAlign=middle;whiteSpace=wrap;rounded=0;" parent="1" vertex="1">
          <mxGeometry x="427" y="-830" width="60" height="30" as="geometry" />
        </mxCell>
        <mxCell id="A1YP4rXGHSTzzGrMQedD-18" value="" style="rounded=0;whiteSpace=wrap;html=1;" parent="1" vertex="1">
          <mxGeometry x="480" y="-610" width="120" height="30" as="geometry" />
        </mxCell>
        <mxCell id="A1YP4rXGHSTzzGrMQedD-19" value="sum" style="text;html=1;strokeColor=none;fillColor=none;align=center;verticalAlign=middle;whiteSpace=wrap;rounded=0;" parent="1" vertex="1">
          <mxGeometry x="424" y="-610" width="60" height="30" as="geometry" />
        </mxCell>
        <mxCell id="A1YP4rXGHSTzzGrMQedD-20" value="0" style="text;html=1;strokeColor=none;fillColor=none;align=center;verticalAlign=middle;whiteSpace=wrap;rounded=0;" parent="1" vertex="1">
          <mxGeometry x="510" y="-610" width="60" height="30" as="geometry" />
        </mxCell>
        <mxCell id="A1YP4rXGHSTzzGrMQedD-22" value="AR Main" style="text;html=1;strokeColor=none;fillColor=none;align=center;verticalAlign=middle;whiteSpace=wrap;rounded=0;" parent="1" vertex="1">
          <mxGeometry x="260" y="-760" width="60" height="30" as="geometry" />
        </mxCell>
        <mxCell id="A1YP4rXGHSTzzGrMQedD-23" value="" style="rounded=0;whiteSpace=wrap;html=1;" parent="1" vertex="1">
          <mxGeometry x="480" y="-750" width="120" height="30" as="geometry" />
        </mxCell>
        <mxCell id="A1YP4rXGHSTzzGrMQedD-24" value="" style="rounded=0;whiteSpace=wrap;html=1;" parent="1" vertex="1">
          <mxGeometry x="480" y="-690" width="120" height="30" as="geometry" />
        </mxCell>
        <mxCell id="A1YP4rXGHSTzzGrMQedD-25" value="" style="rounded=0;whiteSpace=wrap;html=1;" parent="1" vertex="1">
          <mxGeometry x="480" y="-660" width="120" height="30" as="geometry" />
        </mxCell>
        <mxCell id="A1YP4rXGHSTzzGrMQedD-26" value="??&lt;br&gt;" style="text;html=1;strokeColor=none;fillColor=none;align=center;verticalAlign=middle;whiteSpace=wrap;rounded=0;" parent="1" vertex="1">
          <mxGeometry x="510" y="-750" width="60" height="30" as="geometry" />
        </mxCell>
        <mxCell id="A1YP4rXGHSTzzGrMQedD-27" value="1.2" style="text;html=1;strokeColor=none;fillColor=none;align=center;verticalAlign=middle;whiteSpace=wrap;rounded=0;" parent="1" vertex="1">
          <mxGeometry x="510" y="-720" width="60" height="30" as="geometry" />
        </mxCell>
        <mxCell id="A1YP4rXGHSTzzGrMQedD-30" value="x" style="text;html=1;strokeColor=none;fillColor=none;align=center;verticalAlign=middle;whiteSpace=wrap;rounded=0;" parent="1" vertex="1">
          <mxGeometry x="427" y="-700" width="60" height="30" as="geometry" />
        </mxCell>
        <mxCell id="A1YP4rXGHSTzzGrMQedD-31" value="" style="rounded=0;whiteSpace=wrap;html=1;" parent="1" vertex="1">
          <mxGeometry x="480" y="-720" width="120" height="30" as="geometry" />
        </mxCell>
        <mxCell id="A1YP4rXGHSTzzGrMQedD-33" value="??&lt;br&gt;" style="text;html=1;strokeColor=none;fillColor=none;align=center;verticalAlign=middle;whiteSpace=wrap;rounded=0;" parent="1" vertex="1">
          <mxGeometry x="510" y="-720" width="60" height="30" as="geometry" />
        </mxCell>
        <mxCell id="A1YP4rXGHSTzzGrMQedD-34" value="??&lt;br&gt;" style="text;html=1;strokeColor=none;fillColor=none;align=center;verticalAlign=middle;whiteSpace=wrap;rounded=0;" parent="1" vertex="1">
          <mxGeometry x="510" y="-690" width="60" height="30" as="geometry" />
        </mxCell>
        <mxCell id="A1YP4rXGHSTzzGrMQedD-35" value="??&lt;br&gt;" style="text;html=1;strokeColor=none;fillColor=none;align=center;verticalAlign=middle;whiteSpace=wrap;rounded=0;" parent="1" vertex="1">
          <mxGeometry x="510" y="-660" width="60" height="30" as="geometry" />
        </mxCell>
      </root>
    </mxGraphModel>
  </diagram>
</mxfile>
